# xmcd
#
# Track frame offsets: 
#        182
#        13032
#        27012
#        36480
#        50370
#        61377
#        72322
#        80262
#        93777
#        103662
#        112535
#        119667
#        137917
#        151432
#        164962
#        176000
#        186430
#
# Disc length: 2639 seconds
#
# Revision: 0
# Processed by: cddbd v1.4b42PL1 Copyright (c) Steve Scherf et al.
# Submitted via: ExactAudioCopy v0.90a11
#
DISCID=e90a4d11
DTITLE=Greenhorns - potkal klokan klokana
DYEAR=1900
DGENRE=
TTITLE0=Strihacsky nuzky
TTITLE1=Hospoda bez piva
TTITLE2=Dan, zvany "Svaty"
TTITLE3=Kuchar v honackem tabore
TTITLE4=Mala rybka
TTITLE5=Edward Kelly
TTITLE6=Takhle chodi
TTITLE7=Kde je stin gumovniku
TTITLE8=Redback pod prkynkem hajzliku
TTITLE9=Bar, co ma Linej Harry
TTITLE10=Muj bumerang se nevraci
TTITLE11=Marion Lee
TTITLE12=Po rece
TTITLE13=Mad Jack a Kakadu
TTITLE14=Carra Carra Wirra Canna
TTITLE15=Jestli ses narodil v Australii
TTITLE16=Domov medzi gumovniky
EXTD=
EXTT0=
EXTT1=
EXTT2=
EXTT3=
EXTT4=
EXTT5=
EXTT6=
EXTT7=
EXTT8=
EXTT9=
EXTT10=
EXTT11=
EXTT12=
EXTT13=
EXTT14=
EXTT15=
EXTT16=
PLAYORDER=
